<svg width="262" height="33" viewBox="0 0 262 33" fill="none" xmlns="http://www.w3.org/2000/svg">
<path d="M13.28 32.4001C10.7467 32.4001 8.57334 31.9868 6.76 31.1601C4.97334 30.3334 3.57334 29.1201 2.56 27.5201C1.57334 25.9201 1.02667 23.9334 0.920005 21.5601C0.893338 20.4668 0.880005 19.2934 0.880005 18.0401C0.880005 16.7868 0.893338 15.5868 0.920005 14.4401C1.02667 12.1201 1.58667 10.1601 2.6 8.5601C3.61334 6.93343 5.02667 5.70676 6.84001 4.8801C8.65334 4.02676 10.8 3.6001 13.28 3.6001C15.04 3.6001 16.6667 3.82676 18.16 4.2801C19.6533 4.70676 20.96 5.34676 22.08 6.2001C23.2 7.02676 24.0667 8.0401 24.68 9.2401C25.32 10.4134 25.6533 11.7468 25.68 13.2401C25.7067 13.4801 25.6267 13.6801 25.44 13.8401C25.28 14.0001 25.08 14.0801 24.84 14.0801H19.44C19.0933 14.0801 18.8267 14.0134 18.64 13.8801C18.4533 13.7201 18.2933 13.4401 18.16 13.0401C17.7867 11.6268 17.1733 10.6668 16.32 10.1601C15.4933 9.62676 14.4667 9.3601 13.24 9.3601C11.7733 9.3601 10.6133 9.77343 9.76001 10.6001C8.90667 11.4001 8.44001 12.7468 8.36001 14.6401C8.28001 16.8268 8.28001 19.0668 8.36001 21.3601C8.44001 23.2534 8.90667 24.6134 9.76001 25.4401C10.6133 26.2401 11.7733 26.6401 13.24 26.6401C14.4667 26.6401 15.5067 26.3734 16.36 25.8401C17.2133 25.3068 17.8133 24.3468 18.16 22.9601C18.2667 22.5601 18.4133 22.2934 18.6 22.1601C18.8133 22.0001 19.0933 21.9201 19.44 21.9201H24.84C25.08 21.9201 25.28 22.0001 25.44 22.1601C25.6267 22.3201 25.7067 22.5201 25.68 22.7601C25.6533 24.2534 25.32 25.6001 24.68 26.8001C24.0667 27.9734 23.2 28.9868 22.08 29.8401C20.96 30.6668 19.6533 31.3068 18.16 31.7601C16.6667 32.1868 15.04 32.4001 13.28 32.4001Z" fill="white"/>
<path d="M30.8859 32.0001C30.5926 32.0001 30.3526 31.9068 30.1659 31.7201C29.9793 31.5334 29.8859 31.2934 29.8859 31.0001V5.0001C29.8859 4.70676 29.9793 4.46676 30.1659 4.2801C30.3526 4.09343 30.5926 4.0001 30.8859 4.0001H41.7659C45.2059 4.0001 47.9126 4.8001 49.8859 6.4001C51.8859 7.97343 52.8859 10.2134 52.8859 13.1201C52.8859 15.0134 52.4193 16.6134 51.4859 17.9201C50.5793 19.2268 49.3793 20.2134 47.8859 20.8801L53.4059 30.7201C53.4859 30.8801 53.5259 31.0268 53.5259 31.1601C53.5259 31.3734 53.4326 31.5734 53.2459 31.7601C53.0859 31.9201 52.8859 32.0001 52.6459 32.0001H47.3659C46.8593 32.0001 46.4859 31.8801 46.2459 31.6401C46.0059 31.3734 45.8326 31.1334 45.7259 30.9201L41.1659 22.1201H37.0459V31.0001C37.0459 31.2934 36.9526 31.5334 36.7659 31.7201C36.5793 31.9068 36.3393 32.0001 36.0459 32.0001H30.8859ZM37.0459 16.4801H41.6859C42.9393 16.4801 43.8726 16.1734 44.4859 15.5601C45.1259 14.9468 45.4459 14.1068 45.4459 13.0401C45.4459 12.0001 45.1393 11.1601 44.5259 10.5201C43.9393 9.8801 42.9926 9.5601 41.6859 9.5601H37.0459V16.4801Z" fill="white"/>
<path d="M58.5422 32.0001C58.2489 32.0001 58.0089 31.9068 57.8222 31.7201C57.6355 31.5334 57.5422 31.2934 57.5422 31.0001V5.0001C57.5422 4.70676 57.6355 4.46676 57.8222 4.2801C58.0089 4.09343 58.2489 4.0001 58.5422 4.0001H77.2222C77.5155 4.0001 77.7555 4.09343 77.9422 4.2801C78.1289 4.46676 78.2222 4.70676 78.2222 5.0001V8.7601C78.2222 9.05343 78.1289 9.29343 77.9422 9.4801C77.7555 9.66676 77.5155 9.7601 77.2222 9.7601H64.4622V15.1601H76.3422C76.6355 15.1601 76.8755 15.2668 77.0622 15.4801C77.2489 15.6668 77.3422 15.9068 77.3422 16.2001V19.6801C77.3422 19.9468 77.2489 20.1868 77.0622 20.4001C76.8755 20.5868 76.6355 20.6801 76.3422 20.6801H64.4622V26.2401H77.5422C77.8355 26.2401 78.0755 26.3334 78.2622 26.5201C78.4489 26.7068 78.5422 26.9468 78.5422 27.2401V31.0001C78.5422 31.2934 78.4489 31.5334 78.2622 31.7201C78.0755 31.9068 77.8355 32.0001 77.5422 32.0001H58.5422Z" fill="white"/>
<path d="M81.4891 32.0001C81.2757 32.0001 81.0757 31.9201 80.8891 31.7601C80.7291 31.5734 80.6491 31.3734 80.6491 31.1601C80.6491 31.0268 80.6624 30.9068 80.6891 30.8001L90.0891 5.1201C90.1691 4.82676 90.3291 4.57343 90.5691 4.3601C90.8357 4.1201 91.1957 4.0001 91.6491 4.0001H97.5691C98.0224 4.0001 98.3691 4.1201 98.6091 4.3601C98.8757 4.57343 99.0491 4.82676 99.1291 5.1201L108.489 30.8001C108.542 30.9068 108.569 31.0268 108.569 31.1601C108.569 31.3734 108.476 31.5734 108.289 31.7601C108.129 31.9201 107.929 32.0001 107.689 32.0001H102.769C102.369 32.0001 102.062 31.9068 101.849 31.7201C101.662 31.5068 101.542 31.3201 101.489 31.1601L99.9291 27.0801H89.2491L87.7291 31.1601C87.6757 31.3201 87.5557 31.5068 87.3691 31.7201C87.1824 31.9068 86.8624 32.0001 86.4091 32.0001H81.4891ZM90.8891 21.3201H98.3291L94.5691 10.7601L90.8891 21.3201Z" fill="white"/>
<path d="M112.722 32.0001C112.455 32.0001 112.215 31.9068 112.002 31.7201C111.815 31.5334 111.722 31.2934 111.722 31.0001V5.0001C111.722 4.70676 111.815 4.46676 112.002 4.2801C112.215 4.09343 112.455 4.0001 112.722 4.0001H117.042C117.469 4.0001 117.789 4.1201 118.002 4.3601C118.242 4.57343 118.389 4.74676 118.442 4.8801L125.482 17.5201L132.522 4.8801C132.602 4.74676 132.735 4.57343 132.922 4.3601C133.135 4.1201 133.469 4.0001 133.922 4.0001H138.202C138.495 4.0001 138.735 4.09343 138.922 4.2801C139.135 4.46676 139.242 4.70676 139.242 5.0001V31.0001C139.242 31.2934 139.135 31.5334 138.922 31.7201C138.735 31.9068 138.495 32.0001 138.202 32.0001H133.442C133.149 32.0001 132.895 31.9068 132.682 31.7201C132.495 31.5334 132.402 31.2934 132.402 31.0001V16.0001L127.882 24.3601C127.775 24.6001 127.615 24.8134 127.402 25.0001C127.189 25.1868 126.895 25.2801 126.522 25.2801H124.442C124.069 25.2801 123.775 25.1868 123.562 25.0001C123.349 24.8134 123.175 24.6001 123.042 24.3601L118.522 16.0001V31.0001C118.522 31.2934 118.429 31.5334 118.242 31.7201C118.055 31.9068 117.815 32.0001 117.522 32.0001H112.722Z" fill="white"/>
<path d="M163.763 32.4001C161.097 32.4001 158.883 32.0268 157.123 31.2801C155.363 30.5068 154.03 29.5068 153.123 28.2801C152.217 27.0534 151.737 25.7468 151.683 24.3601C151.683 24.1468 151.763 23.9601 151.923 23.8001C152.11 23.6134 152.323 23.5201 152.563 23.5201H157.603C157.977 23.5201 158.257 23.5868 158.443 23.7201C158.657 23.8534 158.843 24.0268 159.003 24.2401C159.217 24.6401 159.51 25.0268 159.883 25.4001C160.283 25.7734 160.79 26.0801 161.403 26.3201C162.043 26.5334 162.83 26.6401 163.763 26.6401C165.31 26.6401 166.47 26.4001 167.243 25.9201C168.043 25.4401 168.443 24.7868 168.443 23.9601C168.443 23.3734 168.23 22.8934 167.803 22.5201C167.377 22.1201 166.683 21.7734 165.723 21.4801C164.79 21.1601 163.537 20.8401 161.963 20.5201C159.937 20.0934 158.203 19.5468 156.763 18.8801C155.35 18.1868 154.27 17.2934 153.523 16.2001C152.777 15.0801 152.403 13.6934 152.403 12.0401C152.403 10.4134 152.857 8.9601 153.763 7.6801C154.697 6.4001 155.99 5.4001 157.643 4.6801C159.297 3.9601 161.257 3.6001 163.523 3.6001C165.363 3.6001 166.977 3.8401 168.363 4.3201C169.777 4.8001 170.963 5.4401 171.923 6.2401C172.883 7.0401 173.603 7.89343 174.083 8.8001C174.59 9.6801 174.857 10.5468 174.883 11.4001C174.883 11.6134 174.803 11.8134 174.643 12.0001C174.483 12.1601 174.283 12.2401 174.043 12.2401H168.763C168.47 12.2401 168.217 12.1868 168.003 12.0801C167.79 11.9734 167.603 11.8001 167.443 11.5601C167.283 10.9734 166.857 10.4668 166.163 10.0401C165.497 9.58676 164.617 9.3601 163.523 9.3601C162.35 9.3601 161.43 9.57343 160.763 10.0001C160.123 10.4001 159.803 11.0268 159.803 11.8801C159.803 12.4134 159.977 12.8801 160.323 13.2801C160.697 13.6801 161.297 14.0268 162.123 14.3201C162.977 14.6134 164.137 14.9201 165.603 15.2401C168.03 15.6934 169.99 16.2668 171.483 16.9601C172.977 17.6268 174.07 18.5068 174.763 19.6001C175.457 20.6668 175.803 22.0134 175.803 23.6401C175.803 25.4534 175.283 27.0268 174.243 28.3601C173.23 29.6668 171.817 30.6668 170.003 31.3601C168.19 32.0534 166.11 32.4001 163.763 32.4001Z" fill="white"/>
<path d="M180.808 32.0001C180.514 32.0001 180.274 31.9068 180.088 31.7201C179.901 31.5334 179.808 31.2934 179.808 31.0001V5.0001C179.808 4.70676 179.901 4.46676 180.088 4.2801C180.274 4.09343 180.514 4.0001 180.808 4.0001H185.968C186.261 4.0001 186.501 4.09343 186.688 4.2801C186.874 4.46676 186.968 4.70676 186.968 5.0001V14.6401H196.848V5.0001C196.848 4.70676 196.941 4.46676 197.128 4.2801C197.314 4.09343 197.554 4.0001 197.848 4.0001H203.008C203.301 4.0001 203.541 4.09343 203.728 4.2801C203.914 4.46676 204.008 4.70676 204.008 5.0001V31.0001C204.008 31.2934 203.914 31.5334 203.728 31.7201C203.541 31.9068 203.301 32.0001 203.008 32.0001H197.848C197.554 32.0001 197.314 31.9068 197.128 31.7201C196.941 31.5334 196.848 31.2934 196.848 31.0001V21.0401H186.968V31.0001C186.968 31.2934 186.874 31.5334 186.688 31.7201C186.501 31.9068 186.261 32.0001 185.968 32.0001H180.808Z" fill="white"/>
<path d="M221.053 32.4001C218.599 32.4001 216.466 32.0001 214.653 31.2001C212.839 30.4001 211.426 29.2001 210.413 27.6001C209.399 25.9734 208.839 23.9468 208.732 21.5201C208.706 20.3734 208.693 19.2268 208.693 18.0801C208.693 16.9334 208.706 15.7734 208.732 14.6001C208.839 12.2001 209.399 10.1868 210.413 8.5601C211.452 6.90677 212.879 5.66677 214.693 4.8401C216.506 4.01343 218.626 3.6001 221.053 3.6001C223.452 3.6001 225.559 4.01343 227.372 4.8401C229.212 5.66677 230.652 6.90677 231.693 8.5601C232.732 10.1868 233.293 12.2001 233.373 14.6001C233.426 15.7734 233.452 16.9334 233.452 18.0801C233.452 19.2268 233.426 20.3734 233.373 21.5201C233.266 23.9468 232.706 25.9734 231.693 27.6001C230.679 29.2001 229.266 30.4001 227.452 31.2001C225.639 32.0001 223.506 32.4001 221.053 32.4001ZM221.053 26.6401C222.466 26.6401 223.613 26.2134 224.493 25.3601C225.399 24.5068 225.879 23.1468 225.933 21.2801C225.986 20.1068 226.013 19.0001 226.013 17.9601C226.013 16.9201 225.986 15.8401 225.933 14.7201C225.879 13.4668 225.639 12.4534 225.213 11.6801C224.813 10.8801 224.253 10.2934 223.533 9.9201C222.812 9.54676 221.986 9.3601 221.053 9.3601C220.146 9.3601 219.333 9.54676 218.613 9.9201C217.893 10.2934 217.319 10.8801 216.893 11.6801C216.466 12.4534 216.226 13.4668 216.173 14.7201C216.146 15.8401 216.133 16.9201 216.133 17.9601C216.133 19.0001 216.146 20.1068 216.173 21.2801C216.253 23.1468 216.732 24.5068 217.613 25.3601C218.493 26.2134 219.639 26.6401 221.053 26.6401Z" fill="white"/>
<path d="M239.089 32.0001C238.796 32.0001 238.556 31.9068 238.369 31.7201C238.182 31.5334 238.089 31.2934 238.089 31.0001V5.0001C238.089 4.70676 238.182 4.46676 238.369 4.2801C238.556 4.09343 238.796 4.0001 239.089 4.0001H250.289C252.502 4.0001 254.422 4.34676 256.049 5.0401C257.702 5.70676 258.982 6.7201 259.889 8.0801C260.822 9.4401 261.289 11.1601 261.289 13.2401C261.289 15.2934 260.822 16.9868 259.889 18.3201C258.982 19.6534 257.702 20.6401 256.049 21.2801C254.422 21.9201 252.502 22.2401 250.289 22.2401H245.529V31.0001C245.529 31.2934 245.422 31.5334 245.209 31.7201C245.022 31.9068 244.782 32.0001 244.489 32.0001H239.089ZM245.409 16.7201H250.089C251.236 16.7201 252.142 16.4268 252.809 15.8401C253.502 15.2534 253.849 14.3601 253.849 13.1601C253.849 12.1468 253.556 11.2934 252.969 10.6001C252.382 9.90676 251.422 9.5601 250.089 9.5601H245.409V16.7201Z" fill="white"/>
</svg>
